# xmcd
#
# Track frame offsets: 
#        150
#        18746
#        42928
#        54201
#        74843
#        92475
#        107235
#        121864
#        140954
#        164523
#        179602
#        200904
#
# Disc length: 2963 seconds
#
# Revision: 0
# Processed by: cddbd v1.5.2PL0 Copyright (c) Steve Scherf et al.
# Submitted via: ExactAudioCopy v1.3
#
DISCID=ba0b910c
DTITLE=Coyote Kings - Coyote Kings' Large Band Extravaganza!
DYEAR=2009
DGENRE=Rockin' Blues
TTITLE0=Naughty Little Girl
TTITLE1=Crack The Whip
TTITLE2=Gimme More Honey
TTITLE3=Trains On Time
TTITLE4=Crazy In The Head
TTITLE5=Don't Be Strange
TTITLE6=Dont Worry
TTITLE7=Black Eyed Voodoo Child
TTITLE8=Get Well Card
TTITLE9=The Swagger
TTITLE10=Love For The Blues
TTITLE11=(You Don't Like) Whats Goin On
EXTD=
EXTT0=
EXTT1=
EXTT2=
EXTT3=
EXTT4=
EXTT5=
EXTT6=
EXTT7=
EXTT8=
EXTT9=
EXTT10=
EXTT11=
PLAYORDER=
